<svg width="22" height="22" viewBox="0 0 22 22" fill="none" xmlns="http://www.w3.org/2000/svg">
<path d="M20.5484 10.3982L18.4398 11.4483L15.708 6.22368L17.8422 5.15657C18.0008 5.07572 18.185 5.06086 18.3545 5.11524C18.524 5.16961 18.6652 5.2888 18.7472 5.44682L20.8472 9.46772C20.8898 9.54821 20.9159 9.6364 20.9239 9.72711C20.9319 9.81782 20.9217 9.90921 20.8938 9.99591C20.866 10.0826 20.8211 10.1629 20.7618 10.232C20.7025 10.3011 20.6299 10.3576 20.5484 10.3982V10.3982Z" stroke="#2EB100" stroke-width="1.36591" stroke-linecap="round" stroke-linejoin="round"/>
<path d="M3.41495 11.3624L1.30633 10.3038C1.22513 10.264 1.15277 10.2083 1.09355 10.14C1.03432 10.0717 0.989435 9.99213 0.96156 9.90612C0.933686 9.8201 0.923391 9.72936 0.931289 9.63929C0.939186 9.54922 0.965115 9.46166 1.00753 9.38181L3.10762 5.36091C3.18977 5.20301 3.33033 5.08341 3.49935 5.0276C3.66837 4.97179 3.85251 4.98418 4.01253 5.06212L6.14677 6.12924L3.41495 11.3624Z" stroke="#2EB100" stroke-width="1.36591" stroke-linecap="round" stroke-linejoin="round"/>
<path d="M18.44 11.4487L17.0741 13.0536L13.9325 16.1952C13.8469 16.2753 13.7432 16.3334 13.6302 16.3646C13.5172 16.3958 13.3983 16.3992 13.2837 16.3745L8.33231 15.1366C8.24186 15.1114 8.15758 15.0678 8.08474 15.0086L3.41504 11.3633" stroke="#2EB100" stroke-width="1.36591" stroke-linecap="round" stroke-linejoin="round"/>
<path d="M17.0731 13.0522L13.3168 10.3204L12.2241 11.1399C11.7507 11.4933 11.1757 11.6842 10.585 11.6842C9.99425 11.6842 9.41932 11.4933 8.9459 11.1399L8.4849 10.7899C8.40695 10.7307 8.34247 10.6555 8.29574 10.5695C8.24901 10.4834 8.22108 10.3884 8.21382 10.2907C8.20656 10.1931 8.22012 10.095 8.2536 10.003C8.28709 9.91096 8.33974 9.8271 8.40807 9.75695L11.7545 6.41901C11.8174 6.35646 11.892 6.30692 11.974 6.27322C12.0561 6.23953 12.1439 6.22235 12.2326 6.22266H15.7071" stroke="#2EB100" stroke-width="1.36591" stroke-linecap="round" stroke-linejoin="round"/>
<path d="M6.19824 6.12927L10.5777 4.84873C10.7333 4.8041 10.8997 4.8162 11.0472 4.88287L14.001 6.22317" stroke="#2EB100" stroke-width="1.36591" stroke-linecap="round" stroke-linejoin="round"/>
<path d="M9.56096 18.1752L6.99134 17.5264C6.88663 17.5027 6.78967 17.4528 6.70962 17.3812L4.78027 15.708" stroke="#2EB100" stroke-width="1.36591" stroke-linecap="round" stroke-linejoin="round"/>
</svg>
