<svg width="22" height="22" viewBox="0 0 22 22" fill="none" xmlns="http://www.w3.org/2000/svg">
<path d="M19.2504 11.6108H16.5186C16.1563 11.6108 15.8089 11.7547 15.5527 12.0108C15.2966 12.267 15.1527 12.6144 15.1527 12.9767V16.3915C15.1527 16.7537 15.2966 17.1011 15.5527 17.3573C15.8089 17.6135 16.1563 17.7574 16.5186 17.7574H17.8845C18.2468 17.7574 18.5942 17.6135 18.8503 17.3573C19.1065 17.1011 19.2504 16.7537 19.2504 16.3915V11.6108ZM19.2504 11.6108C19.2504 10.5288 19.0362 9.45746 18.6201 8.45866C18.204 7.45986 17.5942 6.55335 16.8259 5.79144C16.0577 5.02952 15.1461 4.42728 14.1439 4.01945C13.1417 3.61163 12.0686 3.40631 10.9867 3.41532C9.9054 3.40744 8.83327 3.6136 7.83204 4.02193C6.83081 4.43026 5.92029 5.03268 5.15293 5.79449C4.38557 6.55629 3.77655 7.46242 3.36095 8.46065C2.94536 9.45888 2.73142 10.5295 2.73145 11.6108V16.3915C2.73145 16.7537 2.87535 17.1011 3.13151 17.3573C3.38767 17.6135 3.73509 17.7574 4.09735 17.7574H5.46326C5.82553 17.7574 6.17295 17.6135 6.42911 17.3573C6.68526 17.1011 6.82917 16.7537 6.82917 16.3915V12.9767C6.82917 12.6144 6.68526 12.267 6.42911 12.0108C6.17295 11.7547 5.82553 11.6108 5.46326 11.6108H2.73145" stroke="#2EB100" stroke-width="1.36591" stroke-linecap="round" stroke-linejoin="round"/>
</svg>
