<svg width="19" height="19" viewBox="0 0 19 19" fill="none" xmlns="http://www.w3.org/2000/svg">
<path d="M10.7221 14.6726V11.2866C10.7221 11.137 10.6627 10.9934 10.5568 10.8876C10.451 10.7818 10.3075 10.7223 10.1578 10.7223H7.90048C7.75081 10.7223 7.60727 10.7818 7.50144 10.8876C7.39561 10.9934 7.33615 11.137 7.33615 11.2866V14.6726C7.33615 14.8223 7.2767 14.9658 7.17086 15.0716C7.06503 15.1775 6.92149 15.2369 6.77183 15.2369H3.38586C3.23619 15.2369 3.09265 15.1775 2.98682 15.0716C2.88099 14.9658 2.82153 14.8223 2.82153 14.6726V8.14755C2.8228 8.06945 2.83967 7.9924 2.87117 7.92092C2.90267 7.84944 2.94815 7.78499 3.00494 7.73136L8.64821 2.60303C8.75225 2.50786 8.88814 2.45508 9.02913 2.45508C9.17013 2.45508 9.30602 2.50786 9.41006 2.60303L15.0533 7.73136C15.1101 7.78499 15.1556 7.84944 15.1871 7.92092C15.2186 7.9924 15.2355 8.06945 15.2367 8.14755V14.6726C15.2367 14.8223 15.1773 14.9658 15.0714 15.0716C14.9656 15.1775 14.8221 15.2369 14.6724 15.2369H11.2864C11.1368 15.2369 10.9932 15.1775 10.8874 15.0716C10.7816 14.9658 10.7221 14.8223 10.7221 14.6726Z" stroke="#5F6C72" stroke-width="1.35439" stroke-linecap="round" stroke-linejoin="round"/>
</svg>
