<svg width="68" height="68" viewBox="0 0 68 68" fill="none" xmlns="http://www.w3.org/2000/svg">
<rect x="0.909972" y="0.909972" width="65.2217" height="65.2217" rx="32.6109" fill="white"/>
<rect x="0.909972" y="0.909972" width="65.2217" height="65.2217" rx="32.6109" stroke="#C1C1C1" stroke-width="1.81994"/>
<path d="M32.1983 33.9687C32.1392 33.9097 32.0923 33.8397 32.0603 33.7625C32.0283 33.6854 32.0118 33.6027 32.0118 33.5192C32.0118 33.4357 32.0283 33.353 32.0603 33.2759C32.0923 33.1988 32.1392 33.1287 32.1983 33.0697L38.0213 27.248C38.3786 26.8909 38.5794 26.4065 38.5795 25.9013C38.5796 25.3961 38.3791 24.9116 38.0219 24.5543C37.6648 24.197 37.1804 23.9962 36.6752 23.9961C36.17 23.996 35.6855 24.1965 35.3282 24.5537L29.5052 30.3766C28.6733 31.2109 28.2061 32.341 28.2061 33.5192C28.2061 34.6974 28.6733 35.8275 29.5052 36.6618L35.3282 42.4848C35.6855 42.8419 36.17 43.0425 36.6752 43.0423C37.1804 43.0422 37.6648 42.8414 38.0219 42.4841C38.3791 42.1268 38.5796 41.6423 38.5795 41.1371C38.5794 40.632 38.3786 40.1475 38.0213 39.7904L32.1983 33.9687Z" fill="#121212"/>
</svg>
