<svg width="24" height="24" viewBox="0 0 24 24" fill="none" xmlns="http://www.w3.org/2000/svg">
<path d="M12 2V6" stroke="white" stroke-linecap="round" stroke-linejoin="round"/>
<path d="M14 4L10 4" stroke="white" stroke-linecap="round" stroke-linejoin="round"/>
<path d="M4 10V16.7639C4 17.5215 4.428 18.214 5.10557 18.5528L11.1056 21.5528C11.6686 21.8343 12.3314 21.8343 12.8944 21.5528L18.8944 18.5528C19.572 18.214 20 17.5215 20 16.7639V10" stroke="white"/>
<path d="M18 5L20 6L12 10L4 6L6 5" stroke="white" stroke-linecap="round" stroke-linejoin="round"/>
<path d="M20 6L12 10L14 13L22 9L20 6Z" stroke="white" stroke-linecap="round" stroke-linejoin="round"/>
<path d="M4 6L12 10L10 13L2 9L4 6Z" stroke="white" stroke-linecap="round" stroke-linejoin="round"/>
</svg>
