<svg width="25" height="24" viewBox="0 0 25 24" fill="none" xmlns="http://www.w3.org/2000/svg">
<path fill-rule="evenodd" clip-rule="evenodd" d="M22.0285 4.75C22.0285 5.16421 21.6928 5.5 21.2785 5.5L6.75781 5.5C6.3436 5.5 6.00781 5.16421 6.00781 4.75C6.00781 4.33578 6.3436 4 6.75781 4H21.2785C21.6928 4 22.0285 4.33579 22.0285 4.75ZM22.0285 11.75C22.0285 12.1642 21.6928 12.5 21.2785 12.5L6.75781 12.5C6.3436 12.5 6.00781 12.1642 6.00781 11.75C6.00781 11.3358 6.3436 11 6.75781 11L21.2785 11C21.6928 11 22.0285 11.3358 22.0285 11.75ZM21.2785 19.5C21.6928 19.5 22.0285 19.1642 22.0285 18.75C22.0285 18.3358 21.6928 18 21.2785 18L6.75781 18C6.3436 18 6.00781 18.3358 6.00781 18.75C6.00781 19.1642 6.3436 19.5 6.75781 19.5L21.2785 19.5Z" fill="#161616"/>
<circle cx="3" cy="5" r="1" fill="#161616"/>
<circle cx="3" cy="12" r="1" fill="#161616"/>
<circle cx="3" cy="19" r="1" fill="#161616"/>
</svg>
