<svg width="22" height="22" viewBox="0 0 22 22" fill="none" xmlns="http://www.w3.org/2000/svg">
<g clip-path="url(#clip0_1_10459)">
<path d="M19.5344 10.5648L11.323 2.3534C10.9946 2.02494 10.5384 1.82422 10.0366 1.82422H3.64994C2.64633 1.82422 1.8252 2.64536 1.8252 3.64897V10.0356C1.8252 10.5374 2.02592 10.9936 2.3635 11.3312L10.5749 19.5425C10.9033 19.871 11.3595 20.0717 11.8613 20.0717C12.3631 20.0717 12.8193 19.871 13.1478 19.5334L19.5344 13.1468C19.872 12.8183 20.0727 12.3621 20.0727 11.8603C20.0727 11.3585 19.8628 10.8932 19.5344 10.5648ZM5.0185 6.38609C4.26123 6.38609 3.64994 5.7748 3.64994 5.01753C3.64994 4.26026 4.26123 3.64897 5.0185 3.64897C5.77577 3.64897 6.38706 4.26026 6.38706 5.01753C6.38706 5.7748 5.77577 6.38609 5.0185 6.38609Z" fill="white"/>
</g>
<defs>
<clipPath id="clip0_1_10459">
<rect width="21.897" height="21.897" fill="white"/>
</clipPath>
</defs>
</svg>
