<svg width="22" height="22" viewBox="0 0 22 22" fill="none" xmlns="http://www.w3.org/2000/svg">
<path d="M10.9272 15.0253C14.6991 15.0253 17.7567 11.9676 17.7567 8.19576C17.7567 4.4239 14.6991 1.36621 10.9272 1.36621C7.15535 1.36621 4.09766 4.4239 4.09766 8.19576C4.09766 11.9676 7.15535 15.0253 10.9272 15.0253Z" stroke="#2EB100" stroke-width="1.36591" stroke-linecap="round" stroke-linejoin="round"/>
<path d="M10.9268 12.2931C13.1899 12.2931 15.0246 10.4585 15.0246 8.19538C15.0246 5.93227 13.1899 4.09766 10.9268 4.09766C8.66372 4.09766 6.8291 5.93227 6.8291 8.19538C6.8291 10.4585 8.66372 12.2931 10.9268 12.2931Z" stroke="#2EB100" stroke-width="1.36591" stroke-linecap="round" stroke-linejoin="round"/>
<path d="M15.0246 13.6592V20.4887L10.9268 18.4399L6.8291 20.4887V13.6592" stroke="#2EB100" stroke-width="1.36591" stroke-linecap="round" stroke-linejoin="round"/>
</svg>
