<svg width="58" height="38" viewBox="0 0 58 38" fill="none" xmlns="http://www.w3.org/2000/svg">
<path d="M0 24C0 10.7452 10.7452 0 24 0L58 0V14C58 27.2548 47.2548 38 34 38L0 38L0 24Z" fill="#FCBD01"/>
<path d="M17.188 23C17.1 23 17.028 22.972 16.972 22.916C16.916 22.86 16.888 22.788 16.888 22.7V14.9C16.888 14.812 16.916 14.74 16.972 14.684C17.028 14.628 17.1 14.6 17.188 14.6H18.28C18.4 14.6 18.488 14.628 18.544 14.684C18.6 14.74 18.636 14.784 18.652 14.816L21.856 19.82V14.9C21.856 14.812 21.884 14.74 21.94 14.684C21.996 14.628 22.064 14.6 22.144 14.6H23.368C23.456 14.6 23.528 14.628 23.584 14.684C23.64 14.74 23.668 14.812 23.668 14.9V22.7C23.668 22.78 23.64 22.852 23.584 22.916C23.528 22.972 23.456 23 23.368 23H22.264C22.144 23 22.056 22.972 22 22.916C21.952 22.852 21.916 22.808 21.892 22.784L18.7 17.936V22.7C18.7 22.788 18.672 22.86 18.616 22.916C18.56 22.972 18.488 23 18.4 23H17.188ZM28.0947 23.12C27.1747 23.12 26.4427 22.864 25.8987 22.352C25.3627 21.84 25.0787 21.096 25.0467 20.12C25.0467 20.056 25.0467 19.972 25.0467 19.868C25.0467 19.756 25.0467 19.668 25.0467 19.604C25.0787 18.988 25.2187 18.46 25.4667 18.02C25.7147 17.572 26.0627 17.232 26.5107 17C26.9587 16.76 27.4827 16.64 28.0827 16.64C28.7547 16.64 29.3147 16.78 29.7627 17.06C30.2187 17.332 30.5587 17.708 30.7827 18.188C31.0147 18.66 31.1307 19.204 31.1307 19.82V20.096C31.1307 20.176 31.0987 20.244 31.0347 20.3C30.9787 20.356 30.9107 20.384 30.8307 20.384H26.9067C26.9067 20.392 26.9067 20.408 26.9067 20.432C26.9067 20.448 26.9067 20.464 26.9067 20.48C26.9147 20.736 26.9627 20.972 27.0507 21.188C27.1467 21.396 27.2787 21.564 27.4467 21.692C27.6227 21.82 27.8307 21.884 28.0707 21.884C28.2707 21.884 28.4347 21.856 28.5627 21.8C28.6907 21.744 28.7947 21.676 28.8747 21.596C28.9627 21.516 29.0267 21.448 29.0667 21.392C29.1387 21.312 29.1947 21.264 29.2347 21.248C29.2827 21.224 29.3547 21.212 29.4507 21.212H30.6987C30.7787 21.212 30.8427 21.236 30.8907 21.284C30.9467 21.324 30.9707 21.384 30.9627 21.464C30.9547 21.592 30.8867 21.752 30.7587 21.944C30.6387 22.128 30.4587 22.312 30.2187 22.496C29.9787 22.672 29.6787 22.82 29.3187 22.94C28.9667 23.06 28.5587 23.12 28.0947 23.12ZM26.9067 19.292H29.2587V19.268C29.2587 18.98 29.2107 18.732 29.1147 18.524C29.0267 18.308 28.8947 18.14 28.7187 18.02C28.5427 17.9 28.3307 17.84 28.0827 17.84C27.8347 17.84 27.6227 17.9 27.4467 18.02C27.2707 18.14 27.1347 18.308 27.0387 18.524C26.9507 18.732 26.9067 18.98 26.9067 19.268V19.292ZM33.8587 23C33.7467 23 33.6587 22.972 33.5947 22.916C33.5387 22.86 33.4947 22.788 33.4627 22.7L31.7467 17.144C31.7307 17.104 31.7227 17.064 31.7227 17.024C31.7227 16.952 31.7467 16.892 31.7947 16.844C31.8507 16.788 31.9147 16.76 31.9867 16.76H33.0427C33.1467 16.76 33.2267 16.788 33.2827 16.844C33.3387 16.9 33.3747 16.952 33.3907 17L34.4827 20.708L35.6467 17.024C35.6627 16.968 35.6987 16.912 35.7547 16.856C35.8187 16.792 35.9067 16.76 36.0187 16.76H36.7027C36.8147 16.76 36.8987 16.792 36.9547 16.856C37.0187 16.912 37.0587 16.968 37.0747 17.024L38.2387 20.708L39.3307 17C39.3387 16.952 39.3707 16.9 39.4267 16.844C39.4907 16.788 39.5707 16.76 39.6667 16.76H40.7227C40.7947 16.76 40.8547 16.788 40.9027 16.844C40.9587 16.892 40.9867 16.952 40.9867 17.024C40.9867 17.064 40.9827 17.104 40.9747 17.144L39.2467 22.7C39.2227 22.788 39.1787 22.86 39.1147 22.916C39.0587 22.972 38.9747 23 38.8627 23H37.9387C37.8267 23 37.7387 22.972 37.6747 22.916C37.6107 22.86 37.5627 22.788 37.5307 22.7L36.3667 19.148L35.1787 22.7C35.1547 22.788 35.1107 22.86 35.0467 22.916C34.9827 22.972 34.8947 23 34.7827 23L33.8587 23Z" fill="white"/>
</svg>
