<svg width="31" height="31" viewBox="0 0 31 31" fill="none" xmlns="http://www.w3.org/2000/svg">
<g clip-path="url(#clip0_1_12215)">
<path d="M24.5467 18.6234C23.5867 18.6242 22.6413 18.8586 21.792 19.3063C20.9428 19.754 20.2153 20.4017 19.6722 21.1934L11.4075 17.4616C11.9946 16.0441 11.9968 14.452 11.4139 13.0328L19.6671 9.28203C20.472 10.4461 21.6674 11.2831 23.0365 11.6412C24.4056 11.9994 25.8577 11.855 27.1295 11.2342C28.4012 10.6135 29.4084 9.55743 29.9682 8.2577C30.5281 6.95796 30.6036 5.50062 30.1809 4.15001C29.7583 2.7994 28.8657 1.64499 27.6648 0.896178C26.464 0.147367 25.0345 -0.146247 23.6357 0.0685953C22.237 0.283438 20.9615 0.992507 20.0407 2.06718C19.12 3.14186 18.6149 4.51096 18.6171 5.92614C18.6224 6.26109 18.6564 6.59498 18.7186 6.92415L9.94482 10.9111C9.10215 10.1216 8.04722 9.59545 6.90963 9.39727C5.77204 9.1991 4.60133 9.33754 3.54134 9.79558C2.48134 10.2536 1.57823 11.0113 0.942947 11.9756C0.307665 12.9399 -0.0321165 14.0687 -0.0346537 15.2234C-0.0371908 16.3781 0.297627 17.5084 0.928666 18.4755C1.5597 19.4425 2.45948 20.2042 3.51745 20.6669C4.57542 21.1296 5.74551 21.2732 6.88396 21.08C8.02241 20.8868 9.07965 20.3653 9.92577 19.5795L18.7225 23.5512C18.6614 23.8801 18.6278 24.2135 18.6221 24.548C18.6219 25.7201 18.9693 26.866 19.6203 27.8407C20.2713 28.8154 21.1968 29.5751 22.2797 30.0238C23.3625 30.4724 24.5541 30.5899 25.7037 30.3613C26.8533 30.1327 27.9093 29.5683 28.7382 28.7394C29.567 27.9106 30.1314 26.8546 30.36 25.705C30.5886 24.5554 30.4711 23.3638 30.0225 22.281C29.5738 21.1981 28.8141 20.2726 27.8394 19.6216C26.8647 18.9705 25.7188 18.6232 24.5467 18.6234ZM24.5467 2.53977C25.2165 2.53952 25.8714 2.73791 26.4284 3.10986C26.9855 3.48181 27.4197 4.0106 27.6762 4.62935C27.9327 5.24811 27.9999 5.92903 27.8694 6.58601C27.7389 7.24298 27.4165 7.84649 26.9429 8.32021C26.4694 8.79393 25.866 9.11658 25.2091 9.24734C24.5522 9.37811 23.8712 9.31112 23.2524 9.05486C22.6335 8.79859 22.1046 8.36455 21.7324 7.80764C21.3602 7.25072 21.1616 6.59595 21.1616 5.92614C21.1623 5.02844 21.5191 4.16769 22.1537 3.53281C22.7884 2.89792 23.649 2.54078 24.5467 2.53977ZM5.92486 18.6234C5.25505 18.6237 4.6002 18.4253 4.04315 18.0533C3.4861 17.6814 3.05186 17.1526 2.79536 16.5338C2.53886 15.9151 2.47162 15.2342 2.60214 14.5772C2.73266 13.9202 3.05508 13.3167 3.52862 12.843C4.00216 12.3693 4.60555 12.0466 5.26248 11.9159C5.9194 11.7851 6.60035 11.8521 7.2192 12.1083C7.83805 12.3646 8.36701 12.7987 8.73916 13.3556C9.11132 13.9125 9.30996 14.5672 9.30996 15.2371C9.30895 16.1347 8.95202 16.9952 8.31745 17.63C7.68287 18.2648 6.82245 18.6221 5.92486 18.6234ZM24.5467 27.9344C23.8769 27.9344 23.2222 27.7357 22.6653 27.3636C22.1084 26.9915 21.6744 26.4627 21.4181 25.8439C21.1618 25.2251 21.0947 24.5442 21.2254 23.8873C21.3561 23.2304 21.6786 22.6271 22.1522 22.1535C22.6258 21.6799 23.2292 21.3573 23.8861 21.2267C24.5429 21.096 25.2238 21.1631 25.8426 21.4194C26.4614 21.6757 26.9903 22.1097 27.3624 22.6666C27.7345 23.2235 27.9331 23.8782 27.9331 24.548C27.9324 25.4459 27.5754 26.3068 26.9405 26.9418C26.3056 27.5767 25.4446 27.9337 24.5467 27.9344Z" fill="black"/>
</g>
<defs>
<clipPath id="clip0_1_12215">
<rect width="30.4735" height="30.4735" fill="white"/>
</clipPath>
</defs>
</svg>
