<svg width="22" height="22" viewBox="0 0 22 22" fill="none" xmlns="http://www.w3.org/2000/svg">
<path d="M15.0254 6.82912H18.6621C18.7982 6.82823 18.9313 6.86852 19.0441 6.9447C19.1568 7.02089 19.2439 7.12939 19.2939 7.25596L20.489 10.2439" stroke="#2EB100" stroke-width="1.36591" stroke-linecap="round" stroke-linejoin="round"/>
<path d="M1.36621 12.293H15.0253" stroke="#2EB100" stroke-width="1.36591" stroke-linecap="round" stroke-linejoin="round"/>
<path d="M16.0498 18.4395C17.1814 18.4395 18.0987 17.5222 18.0987 16.3907C18.0987 15.2591 17.1814 14.3418 16.0498 14.3418C14.9183 14.3418 14.001 15.2591 14.001 16.3907C14.001 17.5222 14.9183 18.4395 16.0498 18.4395Z" stroke="#2EB100" stroke-width="1.36591" stroke-miterlimit="10"/>
<path d="M5.80472 18.4395C6.93628 18.4395 7.85359 17.5222 7.85359 16.3907C7.85359 15.2591 6.93628 14.3418 5.80472 14.3418C4.67317 14.3418 3.75586 15.2591 3.75586 16.3907C3.75586 17.5222 4.67317 18.4395 5.80472 18.4395Z" stroke="#2EB100" stroke-width="1.36591" stroke-miterlimit="10"/>
<path d="M14.0001 16.3906H7.85352" stroke="#2EB100" stroke-width="1.36591" stroke-linecap="round" stroke-linejoin="round"/>
<path d="M3.75655 16.3911H2.04917C1.86803 16.3911 1.69432 16.3192 1.56624 16.1911C1.43816 16.063 1.36621 15.8893 1.36621 15.7082V6.14682C1.36621 5.96569 1.43816 5.79198 1.56624 5.6639C1.69432 5.53582 1.86803 5.46387 2.04917 5.46387H15.0253V14.6155" stroke="#2EB100" stroke-width="1.36591" stroke-linecap="round" stroke-linejoin="round"/>
<path d="M15.0254 10.2441H20.489V15.7078C20.489 15.8889 20.4171 16.0626 20.289 16.1907C20.1609 16.3188 19.9872 16.3907 19.8061 16.3907H18.0987" stroke="#2EB100" stroke-width="1.36591" stroke-linecap="round" stroke-linejoin="round"/>
</svg>
